<svg id="visual" viewBox="0 0 1920 900" width="1920" height="900" xmlns="http://www.w3.org/2000/svg" xmlns:xlink="http://www.w3.org/1999/xlink" version="1.1"><path d="M0 361L53.3 364.7C106.7 368.3 213.3 375.7 320 376.8C426.7 378 533.3 373 640 361.8C746.7 350.7 853.3 333.3 960 336C1066.7 338.7 1173.3 361.3 1280 372.3C1386.7 383.3 1493.3 382.7 1600 372.7C1706.7 362.7 1813.3 343.3 1866.7 333.7L1920 324L1920 0L1866.7 0C1813.3 0 1706.7 0 1600 0C1493.3 0 1386.7 0 1280 0C1173.3 0 1066.7 0 960 0C853.3 0 746.7 0 640 0C533.3 0 426.7 0 320 0C213.3 0 106.7 0 53.3 0L0 0Z" fill="#bfd544"></path><path d="M0 145L53.3 147C106.7 149 213.3 153 320 158.5C426.7 164 533.3 171 640 166.8C746.7 162.7 853.3 147.3 960 142C1066.7 136.7 1173.3 141.3 1280 146C1386.7 150.7 1493.3 155.3 1600 158.7C1706.7 162 1813.3 164 1866.7 165L1920 166L1920 0L1866.7 0C1813.3 0 1706.7 0 1600 0C1493.3 0 1386.7 0 1280 0C1173.3 0 1066.7 0 960 0C853.3 0 746.7 0 640 0C533.3 0 426.7 0 320 0C213.3 0 106.7 0 53.3 0L0 0Z" fill="#c7de50"></path></svg>