<svg id="visual" viewBox="0 0 1920 600" width="1920" height="600" xmlns="http://www.w3.org/2000/svg" xmlns:xlink="http://www.w3.org/1999/xlink" version="1.1"><path d="M0 405L22.8 410.7C45.7 416.3 91.3 427.7 137 428.8C182.7 430 228.3 421 274 413.7C319.7 406.3 365.3 400.7 411.2 399.3C457 398 503 401 548.8 404.5C594.7 408 640.3 412 686 419.2C731.7 426.3 777.3 436.7 823 434.3C868.7 432 914.3 417 960 407.8C1005.7 398.7 1051.3 395.3 1097 393.8C1142.7 392.3 1188.3 392.7 1234 396.2C1279.7 399.7 1325.3 406.3 1371.2 407.3C1417 408.3 1463 403.7 1508.8 407.3C1554.7 411 1600.3 423 1646 431C1691.7 439 1737.3 443 1783 441.7C1828.7 440.3 1874.3 433.7 1897.2 430.3L1920 427L1920 601L1897.2 601C1874.3 601 1828.7 601 1783 601C1737.3 601 1691.7 601 1646 601C1600.3 601 1554.7 601 1508.8 601C1463 601 1417 601 1371.2 601C1325.3 601 1279.7 601 1234 601C1188.3 601 1142.7 601 1097 601C1051.3 601 1005.7 601 960 601C914.3 601 868.7 601 823 601C777.3 601 731.7 601 686 601C640.3 601 594.7 601 548.8 601C503 601 457 601 411.2 601C365.3 601 319.7 601 274 601C228.3 601 182.7 601 137 601C91.3 601 45.7 601 22.8 601L0 601Z" fill="#560090"></path><path d="M0 462L22.8 462.5C45.7 463 91.3 464 137 462.8C182.7 461.7 228.3 458.3 274 456.8C319.7 455.3 365.3 455.7 411.2 454C457 452.3 503 448.7 548.8 447.2C594.7 445.7 640.3 446.3 686 447.3C731.7 448.3 777.3 449.7 823 455.5C868.7 461.3 914.3 471.7 960 469.8C1005.7 468 1051.3 454 1097 452.5C1142.7 451 1188.3 462 1234 468.7C1279.7 475.3 1325.3 477.7 1371.2 477.2C1417 476.7 1463 473.3 1508.8 474.5C1554.7 475.7 1600.3 481.3 1646 478.5C1691.7 475.7 1737.3 464.3 1783 460.8C1828.7 457.3 1874.3 461.7 1897.2 463.8L1920 466L1920 601L1897.2 601C1874.3 601 1828.7 601 1783 601C1737.3 601 1691.7 601 1646 601C1600.3 601 1554.7 601 1508.8 601C1463 601 1417 601 1371.2 601C1325.3 601 1279.7 601 1234 601C1188.3 601 1142.7 601 1097 601C1051.3 601 1005.7 601 960 601C914.3 601 868.7 601 823 601C777.3 601 731.7 601 686 601C640.3 601 594.7 601 548.8 601C503 601 457 601 411.2 601C365.3 601 319.7 601 274 601C228.3 601 182.7 601 137 601C91.3 601 45.7 601 22.8 601L0 601Z" fill="#6c00b4"></path><path d="M0 505L22.8 506.3C45.7 507.7 91.3 510.3 137 509.2C182.7 508 228.3 503 274 505.8C319.7 508.7 365.3 519.3 411.2 517.8C457 516.3 503 502.7 548.8 496.5C594.7 490.3 640.3 491.7 686 492.3C731.7 493 777.3 493 823 493.5C868.7 494 914.3 495 960 499.8C1005.7 504.7 1051.3 513.3 1097 512.2C1142.7 511 1188.3 500 1234 493.3C1279.7 486.7 1325.3 484.3 1371.2 484.3C1417 484.3 1463 486.7 1508.8 490.8C1554.7 495 1600.3 501 1646 507.7C1691.7 514.3 1737.3 521.7 1783 522.7C1828.7 523.7 1874.3 518.3 1897.2 515.7L1920 513L1920 601L1897.2 601C1874.3 601 1828.7 601 1783 601C1737.3 601 1691.7 601 1646 601C1600.3 601 1554.7 601 1508.8 601C1463 601 1417 601 1371.2 601C1325.3 601 1279.7 601 1234 601C1188.3 601 1142.7 601 1097 601C1051.3 601 1005.7 601 960 601C914.3 601 868.7 601 823 601C777.3 601 731.7 601 686 601C640.3 601 594.7 601 548.8 601C503 601 457 601 411.2 601C365.3 601 319.7 601 274 601C228.3 601 182.7 601 137 601C91.3 601 45.7 601 22.8 601L0 601Z" fill="#8200d9"></path><path d="M0 529L22.8 530C45.7 531 91.3 533 137 534.5C182.7 536 228.3 537 274 542.7C319.7 548.3 365.3 558.7 411.2 564.3C457 570 503 571 548.8 564.2C594.7 557.3 640.3 542.7 686 537.3C731.7 532 777.3 536 823 540.8C868.7 545.7 914.3 551.3 960 555.5C1005.7 559.7 1051.3 562.3 1097 563C1142.7 563.7 1188.3 562.3 1234 562.8C1279.7 563.3 1325.3 565.7 1371.2 560.5C1417 555.3 1463 542.7 1508.8 538.8C1554.7 535 1600.3 540 1646 542.7C1691.7 545.3 1737.3 545.7 1783 549C1828.7 552.3 1874.3 558.7 1897.2 561.8L1920 565L1920 601L1897.2 601C1874.3 601 1828.7 601 1783 601C1737.3 601 1691.7 601 1646 601C1600.3 601 1554.7 601 1508.8 601C1463 601 1417 601 1371.2 601C1325.3 601 1279.7 601 1234 601C1188.3 601 1142.7 601 1097 601C1051.3 601 1005.7 601 960 601C914.3 601 868.7 601 823 601C777.3 601 731.7 601 686 601C640.3 601 594.7 601 548.8 601C503 601 457 601 411.2 601C365.3 601 319.7 601 274 601C228.3 601 182.7 601 137 601C91.3 601 45.7 601 22.8 601L0 601Z" fill="#9900ff"></path></svg>